HIERARCHY
ROOT Hips
{
	OFFSET 207.810501 92.148010 50.517139
	CHANNELS 6 Xposition Yposition Zposition Zrotation Yrotation Xrotation 
	JOINT LeftUpLeg
	{
		OFFSET 0.103462 1.857827 10.548504
		CHANNELS 3 Zrotation Yrotation Xrotation
		JOINT LeftLeg
		{
			OFFSET 43.500000 -0.000031 0.000000
			CHANNELS 3 Zrotation Yrotation Xrotation
			JOINT LeftFoot
			{
				OFFSET 42.372192 0.000015 0.000000
				CHANNELS 3 Zrotation Yrotation Xrotation
				JOINT LeftToe
				{
					OFFSET 17.300001 0.000000 -0.000009
					CHANNELS 3 Zrotation Yrotation Xrotation
					End Site
					{
						OFFSET 0.000000 0.000000 0.000000
					}
				}
			}
		}
	}
	JOINT RightUpLeg
	{
		OFFSET 0.103456 1.857828 -10.548508
		CHANNELS 3 Zrotation Yrotation Xrotation
		JOINT RightLeg
		{
			OFFSET 43.500046 -0.000015 0.000008
			CHANNELS 3 Zrotation Yrotation Xrotation
			JOINT RightFoot
			{
				OFFSET 42.372261 -0.000015 0.000002
				CHANNELS 3 Zrotation Yrotation Xrotation
				JOINT RightToe
				{
					OFFSET 17.299999 -0.000003 0.000011
					CHANNELS 3 Zrotation Yrotation Xrotation
					End Site
					{
						OFFSET 0.000000 0.000000 0.000000
					}
				}
			}
		}
	}
	JOINT Spine
	{
		OFFSET 6.901966 -2.603728 -0.000009
		CHANNELS 3 Zrotation Yrotation Xrotation
		JOINT Spine1
		{
			OFFSET 12.588099 0.000000 0.000013
			CHANNELS 3 Zrotation Yrotation Xrotation
			JOINT Spine2
			{
				OFFSET 12.343203 0.000005 -0.000004
				CHANNELS 3 Zrotation Yrotation Xrotation
				JOINT Neck
				{
					OFFSET 25.832897 -0.000004 0.000004
					CHANNELS 3 Zrotation Yrotation Xrotation
					JOINT Head
					{
						OFFSET 11.766615 0.000003 -0.000003
						CHANNELS 3 Zrotation Yrotation Xrotation
						End Site
						{
							OFFSET 0.000000 0.000000 0.000000
						}
					}
				}
				JOINT LeftShoulder
				{
					OFFSET 19.745903 -1.480370 6.000102
					CHANNELS 3 Zrotation Yrotation Xrotation
					JOINT LeftArm
					{
						OFFSET 11.284127 -0.000006 -0.000019
						CHANNELS 3 Zrotation Yrotation Xrotation
						JOINT LeftForeArm
						{
							OFFSET 33.000042 0.000001 0.000035
							CHANNELS 3 Zrotation Yrotation Xrotation
							JOINT LeftHand
							{
								OFFSET 25.200005 0.000015 0.000003
								CHANNELS 3 Zrotation Yrotation Xrotation
								End Site
								{
									OFFSET 0.000000 0.000000 0.000000
								}
							}
						}
					}
				}
				JOINT RightShoulder
				{
					OFFSET 19.746101 -1.480375 -6.000084
					CHANNELS 3 Zrotation Yrotation Xrotation
					JOINT RightArm
					{
						OFFSET 11.284132 -0.000016 -0.000012
						CHANNELS 3 Zrotation Yrotation Xrotation
						JOINT RightForeArm
						{
							OFFSET 33.000092 0.000018 0.000010
							CHANNELS 3 Zrotation Yrotation Xrotation
							JOINT RightHand
							{
								OFFSET 25.199774 0.000137 0.000425
								CHANNELS 3 Zrotation Yrotation Xrotation
								End Site
								{
									OFFSET 0.000000 0.000000 0.000000
								}
							}
						}
					}
				}
			}
		}
	}
}
MOTION
Frames: 11
Frame Time: 0.033333
306.502411 63.436401 256.231903 103.080593 2.956453 -135.780035 170.930224 1.829304 -170.531218 -106.787501 5.008750 -15.451111 98.500351 9.384616 -9.867737 21.454557 0.003089 -0.000001 123.882092 9.597599 179.402965 -64.193943 3.122803 1.091368 64.847278 4.602337 13.778693 21.454560 -0.003112 -0.000018 12.866452 3.391320 1.093684 15.823101 6.600831 2.646693 15.503056 6.616817 2.606657 11.956306 -1.765788 6.101108 -22.117122 -9.687686 10.350599 167.611599 -76.425691 11.140284 22.936276 51.925427 19.587932 -87.916501 -5.434314 2.592977 1.591000 -10.848254 30.749331 171.570910 76.474582 -7.140388 5.307926 -44.491408 -17.704506 -58.877276 21.527815 -2.536504 -17.003930 30.033677 -33.485928 
310.732391 62.245380 253.666306 104.334295 3.288697 -135.133066 159.762715 7.587798 -178.426097 -113.578799 5.744114 -21.577351 95.885392 13.249098 -10.406167 21.454548 0.003101 -0.000002 123.300160 9.474797 -178.520504 -72.635572 2.024271 0.345229 70.676988 4.415881 13.799990 21.454555 -0.003110 -0.000017 13.265290 4.098911 1.240953 16.665896 7.975954 3.069148 16.344909 7.994468 3.020693 10.685641 -0.224955 6.130234 -21.404650 -12.648026 11.608001 164.532714 -75.799862 14.304264 22.633053 57.967897 34.024666 -73.400198 -12.860643 2.484060 2.210240 -15.222432 25.268194 168.143562 76.537105 -10.633321 -4.362224 -40.141391 -10.475466 -54.072026 22.222294 -2.405976 -14.522922 29.405044 -30.746090 
314.051300 61.478439 251.287994 104.940010 3.504131 -135.232049 147.281241 10.105501 173.199541 -116.626013 5.700189 -20.170223 97.476587 12.569090 -8.309533 21.454558 0.003087 0.000001 123.440124 9.480288 -176.878868 -78.259495 0.920968 -0.500524 75.376267 4.390005 13.589678 21.454560 -0.003110 -0.000017 13.721710 4.467749 1.593500 17.627858 8.640248 3.863060 17.306552 8.663520 3.810547 9.080520 0.653435 5.737215 -21.637711 -14.219621 11.940929 164.038864 -75.123454 14.836043 22.517906 62.730261 44.095025 -62.850021 -15.805061 2.261595 3.757133 -19.400563 15.034935 160.604235 76.597792 -18.311763 -11.514285 -34.300349 -4.721773 -49.644847 22.300286 -2.257276 -12.380020 28.469571 -28.375777 
316.625092 61.085129 248.949097 105.483201 3.227193 -135.417967 135.194128 9.780200 168.054988 -114.869111 4.418133 -11.908921 95.994375 6.834917 -10.433771 21.454563 0.003089 0.000001 124.851022 9.711306 -176.158679 -81.859571 0.194007 -1.175404 79.925740 4.397695 13.874701 21.454555 -0.003104 -0.000017 14.259380 4.606177 2.058827 18.750333 8.817608 4.854601 18.429319 8.846855 4.801041 7.854550 1.382874 5.327989 -21.578502 -15.231486 11.997303 164.841507 -74.036689 14.060682 23.570829 64.678101 49.551632 -58.329802 -15.486088 2.069826 5.542326 -20.484362 6.886208 151.517925 77.323964 -27.512087 -17.211052 -28.807603 -0.134865 -45.491843 22.366137 -2.127494 -10.119369 27.650779 -26.823360 
318.058289 61.424370 246.626297 104.954203 2.474864 -136.108035 123.807041 7.821006 163.079345 -108.182403 3.634253 -14.225566 94.447412 8.446520 -9.766530 21.454550 0.003096 -0.000001 126.415259 10.257093 -177.327407 -83.059929 -0.131415 -1.638692 83.167191 4.488002 14.640693 21.454551 -0.003103 -0.000017 14.725678 4.381627 2.597857 19.705552 8.256690 5.922295 19.385644 8.292364 5.872259 8.151390 2.989612 4.699472 -23.146181 -16.147718 12.160304 161.432300 -74.156006 17.540211 26.422505 66.439272 53.707150 -57.099354 -16.025900 2.061750 3.233900 -22.465810 8.899479 145.063806 77.825211 -34.027227 -22.305858 -22.644845 4.016732 -41.133773 21.638388 -1.950237 -6.216029 26.418909 -23.036942 
318.518097 62.216011 244.206100 103.544903 1.240722 -136.134030 115.056640 5.146301 161.185443 -97.504625 2.217144 -15.915659 92.894650 9.514698 -10.299237 21.454550 0.003095 -0.000006 127.893708 12.217200 -179.657567 -82.819705 -0.058294 -2.072445 85.000625 4.784732 15.802414 21.454557 -0.003102 -0.000017 15.104613 4.043491 2.825514 20.450963 7.523832 6.337197 20.131969 7.562026 6.291683 8.317560 3.260895 4.391824 -24.338447 -16.365550 12.166862 161.622876 -74.459423 17.331748 26.769917 66.804974 54.326853 -57.790176 -16.084841 2.090773 0.581864 -25.970468 12.948638 135.417789 79.317778 -43.677472 -26.905334 -17.030928 7.659248 -37.849234 21.581412 -1.857757 -3.728238 25.427934 -19.511458 
318.492615 63.303638 241.663101 102.070798 0.309189 -135.619020 110.037298 2.247499 162.151150 -84.063441 0.397658 -16.405486 89.177081 9.548959 -11.154043 21.454553 0.003092 0.000003 129.646908 14.601194 178.309642 -81.387462 0.032712 -2.397271 86.048731 5.133480 17.186704 21.454562 -0.003108 -0.000018 15.142313 3.790274 3.132378 20.521853 6.964770 6.902044 20.203684 7.006358 6.859959 8.523209 3.383783 3.882169 -24.033674 -15.766831 11.322775 161.352523 -74.337177 17.613475 24.895379 65.592178 50.929063 -58.607094 -16.331059 2.137405 -4.412319 -26.743228 17.775972 128.969394 81.388602 -50.017124 -29.028171 -13.071375 10.678109 -39.080409 22.479462 -1.948963 -4.143091 23.142006 -21.524964 
318.222107 64.612122 238.818100 101.075598 -0.536985 -134.656988 107.910084 -0.669497 164.941391 -70.953781 -0.572815 -14.633569 85.265841 8.087547 -11.006520 21.454551 0.003087 0.000001 132.460796 17.472193 176.984572 -78.890338 0.361734 -2.793866 86.600891 5.580815 18.586932 21.454555 -0.003100 -0.000016 14.983666 3.530469 3.391120 20.194375 6.414643 7.359544 19.876950 6.458989 7.320841 9.434854 3.948229 3.523510 -24.995074 -15.125934 10.852003 163.057598 -74.873647 15.848423 23.145452 63.282543 43.961741 -61.544779 -16.357572 2.249379 -9.550118 -26.526664 25.016900 128.767603 82.143270 -50.160513 -27.536866 -10.662841 11.137557 -46.402437 24.259174 -2.283428 -2.260078 21.763372 -21.641179 
317.778503 66.101219 235.417801 100.668997 -2.131967 -133.885013 108.747424 -3.487389 169.067522 -60.768760 -0.371256 -12.899059 81.068547 5.849578 -14.167499 21.454555 0.003096 -0.000001 136.905377 20.085804 175.773416 -75.329992 0.010622 -2.797288 86.785579 5.938852 20.578074 21.454562 -0.003105 -0.000017 14.840848 3.102098 3.527482 19.876839 5.551687 7.545453 19.560093 5.597145 7.511995 9.939949 3.245207 3.576551 -24.916919 -13.513838 10.093076 162.370112 -75.626546 16.517250 21.244057 59.106319 34.856856 -66.292150 -15.263028 2.359489 -12.314803 -27.977623 28.141559 133.856162 82.755760 -44.994838 -23.869925 -12.690159 14.158768 -59.039657 24.876632 -2.778313 -6.317786 20.887193 -29.185904 
316.952393 67.919197 231.863693 100.505407 -4.182437 -132.905031 110.785894 -6.054706 175.537337 -56.172722 -0.388887 -11.720693 76.765200 4.456460 -14.425918 21.454553 0.003089 -0.000004 142.704099 22.323389 173.240918 -70.216885 0.463594 -1.763433 85.905871 5.848374 23.077577 21.454560 -0.003110 -0.000017 14.611426 2.472367 3.296467 19.357661 4.357834 6.965750 19.041111 4.399851 6.939459 10.760138 2.375244 3.737313 -24.187793 -11.099907 9.004678 163.613234 -77.080324 15.188259 17.877154 52.627639 23.332234 -72.144659 -12.996820 2.441097 -12.202696 -25.690309 29.373884 148.755127 83.092291 -29.967547 -20.090259 -19.277145 20.060486 -72.764847 19.910696 -2.991576 -10.839207 20.215975 -37.089573 
315.880798 69.898178 227.837997 101.068502 -5.418854 -132.995968 112.882413 -10.047102 -175.164149 -57.648245 -1.385786 -8.635273 73.119600 1.244200 -16.231492 21.454551 0.003102 0.000002 149.170621 23.640787 171.263783 -63.405220 0.824165 -0.662202 83.523255 6.083274 25.542073 21.454557 -0.003103 -0.000015 14.291922 1.782295 2.979848 18.661221 3.060044 6.210580 18.344674 3.097580 6.192086 11.940859 2.682761 4.117183 -23.810818 -10.335115 9.034119 157.910094 -79.148321 20.888621 16.234173 46.285163 13.597749 -76.340246 -12.063203 2.552796 -11.133964 -23.179748 31.699396 167.643414 82.282401 -10.938303 -15.634315 -28.627341 24.502525 -83.300427 13.005303 -2.961360 -10.859847 16.917634 -40.310458 
